<svg width="10" height="16" viewBox="0 0 10 16" fill="none" xmlns="http://www.w3.org/2000/svg">
<path d="M9.41262 8.67444C9.77881 8.30867 9.77918 7.71533 9.41342 7.34914C9.41313 7.34886 9.4129 7.34858 9.41262 7.34834L2.37565 0.314983C2.01434 -0.0562205 1.42053 -0.0642364 1.04937 0.297076C0.678165 0.658389 0.67015 1.2522 1.03146 1.62336C1.03728 1.62931 1.04313 1.63522 1.04909 1.64103L7.42259 8.01134L1.04909 14.3817C0.67765 14.7427 0.669213 15.3365 1.03024 15.708C1.39132 16.0795 1.98518 16.0879 2.35662 15.7268C2.36304 15.7205 2.36942 15.7142 2.37565 15.7078L9.41262 8.67444Z" fill="#000000"/>
</svg>
