<?xml version="1.0" standalone="no"?>
<!DOCTYPE svg PUBLIC "-//W3C//DTD SVG 20010904//EN"
 "http://www.w3.org/TR/2001/REC-SVG-20010904/DTD/svg10.dtd">
<svg version="1.0" xmlns="http://www.w3.org/2000/svg"
 width="1267.000000pt" height="1110.000000pt" viewBox="0 0 1267.000000 1110.000000"
 preserveAspectRatio="xMidYMid meet">
<metadata>
Created by potrace 1.16, written by Peter Selinger 2001-2019
</metadata>
<g transform="translate(0.000000,1110.000000) scale(0.100000,-0.100000)"
fill="#000000" stroke="none">
<path d="M1351 10339 c-447 -94 -794 -425 -920 -879 l-26 -95 -3 -2965 c-2
-2664 -1 -2974 14 -3050 81 -440 387 -793 809 -934 177 -59 -30 -56 3326 -56
l3078 0 11 -57 c133 -679 543 -1262 1138 -1618 690 -413 1564 -445 2292 -84
467 232 827 584 1065 1042 186 358 269 701 269 1112 0 202 -10 313 -45 483
-148 728 -626 1346 -1297 1677 -59 29 -142 65 -184 81 l-78 29 -2 2170 -3
2170 -26 95 c-62 220 -162 394 -318 551 -157 156 -331 256 -551 318 l-95 26
-4180 2 c-4129 2 -4181 1 -4274 -18z m8294 -789 c186 -27 318 -158 345 -345 6
-45 10 -777 10 -2056 l0 -1986 -142 -6 c-162 -7 -279 -24 -455 -68 -72 -18
-128 -27 -136 -22 -7 4 -332 278 -720 608 -399 338 -730 612 -760 628 -111 59
-252 60 -368 3 -36 -18 -298 -236 -788 -656 l-734 -628 -807 1008 c-444 554
-820 1020 -836 1035 -16 14 -58 41 -94 58 -61 30 -72 32 -175 32 -105 0 -113
-2 -173 -33 -35 -18 -82 -52 -105 -75 -23 -23 -595 -669 -1272 -1435 l-1230
-1393 -3 2448 c-2 1643 1 2474 8 2527 5 44 21 103 34 132 53 115 174 204 301
223 86 12 8012 13 8100 1z m-4445 -4910 l1188 -1475 -2377 -3 c-1472 -1 -2400
1 -2438 7 -35 5 -86 20 -113 33 l-51 23 1292 1448 c710 796 1296 1446 1301
1445 6 -2 545 -667 1198 -1478z m2859 385 l450 -390 -47 -39 c-97 -81 -310
-304 -382 -401 -224 -299 -367 -625 -446 -1013 -4 -22 -7 -23 -121 -20 l-117
3 -493 619 c-271 340 -491 621 -489 624 40 39 1183 1011 1188 1009 4 -1 210
-177 457 -392z m2279 -723 c123 -27 257 -73 365 -125 l88 -42 -1084 -1083
-1083 -1083 -42 89 c-52 112 -96 243 -124 369 -19 84 -22 129 -22 308 0 180 3
225 22 312 71 329 209 581 441 813 254 253 536 398 887 455 128 21 427 13 552
-13z m1104 -882 c92 -203 136 -389 145 -606 15 -375 -93 -723 -315 -1020 -219
-291 -559 -500 -955 -586 -86 -19 -134 -22 -307 -23 -175 0 -221 3 -317 23
-132 27 -283 77 -401 134 l-84 41 1083 1083 1083 1083 19 -32 c11 -18 33 -61
49 -97z"/>
<path d="M6200 8739 c-286 -74 -507 -297 -580 -583 -28 -109 -28 -283 0 -392
58 -228 209 -417 415 -519 126 -63 221 -85 365 -85 144 0 239 22 365 85 153
75 275 197 350 350 63 126 85 221 85 365 0 139 -21 236 -79 355 -99 208 -295
366 -525 425 -107 27 -290 27 -396 -1z"/>
</g>
</svg>
